<?xml version="1.0" standalone="no"?>
<!DOCTYPE svg PUBLIC "-//W3C//DTD SVG 20010904//EN"
 "http://www.w3.org/TR/2001/REC-SVG-20010904/DTD/svg10.dtd">
<svg version="1.0" xmlns="http://www.w3.org/2000/svg"
 width="1125.000000pt" height="822.000000pt" viewBox="0 0 1125.000000 822.000000"
 preserveAspectRatio="xMidYMid meet">

<g transform="translate(0.000000,822.000000) scale(0.100000,-0.100000)"
fill="#000000" stroke="none">
<path d="M0 4110 l0 -4110 5625 0 5625 0 0 4110 0 4110 -5625 0 -5625 0 0
-4110z m7754 3381 c28 -15 109 -59 181 -96 71 -38 157 -83 190 -101 l60 -33 5
-103 c3 -57 5 -139 5 -183 -1 -75 -2 -80 -23 -83 -17 -3 -22 -10 -22 -31 0
-26 -5 -29 -47 -39 -103 -23 -407 -112 -417 -122 -5 -5 -18 -10 -29 -10 -12 0
-17 -6 -15 -17 1 -10 -1 -24 -6 -32 -6 -9 -5 -12 5 -9 8 3 13 13 13 22 -1 9 2
16 7 16 9 0 10 -2 14 -35 1 -11 5 -31 10 -44 5 -18 4 -22 -5 -16 -9 6 -11 4
-5 -4 9 -16 12 -78 20 -526 4 -203 8 -371 10 -373 2 -2 263 27 385 43 19 3
141 16 270 30 210 22 648 72 835 95 119 15 112 18 146 -57 16 -38 39 -86 51
-108 11 -22 34 -64 49 -93 34 -65 48 -83 60 -77 4 3 13 -4 19 -15 10 -18 17
-19 98 -14 l87 7 15 -29 c8 -16 48 -87 89 -159 83 -147 129 -234 365 -697 91
-180 166 -333 166 -340 0 -7 -28 -42 -63 -78 -78 -81 -224 -241 -392 -430 -71
-80 -175 -195 -231 -256 -57 -60 -113 -121 -124 -135 -12 -13 -34 -38 -49 -55
-16 -17 -74 -84 -131 -150 -56 -65 -161 -183 -232 -260 l-130 -141 -187 -13
c-102 -7 -197 -10 -211 -8 -23 3 -22 5 15 23 22 10 45 25 50 32 13 16 87 32
148 33 53 0 43 -7 162 120 256 275 364 394 360 398 -3 3 -6 3 -8 1 -4 -7 -211
-233 -223 -244 -5 -5 -61 -65 -123 -131 l-112 -122 -79 -7 c-97 -9 -110 -2
-73 35 88 89 163 171 163 179 0 5 9 13 20 16 11 3 20 10 20 15 0 5 17 26 38
47 136 141 269 288 280 309 7 13 17 24 23 24 5 0 24 16 42 37 18 20 60 65 95
100 34 34 60 63 58 63 -6 0 26 32 82 83 23 20 41 37 39 37 -2 0 42 47 98 104
55 57 111 118 125 136 14 18 31 37 38 44 20 18 139 139 167 169 29 33 29 29
10 90 -11 37 -12 54 -4 70 6 12 -51 -43 -127 -123 -76 -80 -193 -201 -259
-270 -67 -69 -190 -199 -275 -290 -85 -91 -213 -228 -285 -305 -182 -194 -368
-395 -401 -433 -26 -29 -34 -32 -84 -32 l-55 0 33 26 c17 14 32 29 32 34 0 5
24 33 53 63 57 59 205 220 258 281 19 21 64 69 102 107 37 37 67 70 67 73 0 2
12 17 28 33 15 16 59 64 97 107 39 43 86 94 105 115 19 20 54 59 77 87 23 27
81 89 128 139 47 49 85 91 85 92 0 2 69 73 153 157 211 213 193 188 168 229
-19 31 -19 35 -5 56 9 12 14 24 12 26 -4 5 -487 -478 -619 -620 -164 -175
-307 -323 -573 -597 -255 -262 -273 -278 -307 -278 -19 0 -38 2 -41 5 -3 3 48
61 114 128 65 67 146 151 181 186 34 35 61 68 60 73 -2 4 4 8 12 8 8 0 29 18
46 40 18 22 38 40 46 40 7 0 13 4 13 9 0 5 39 49 86 98 48 48 93 98 101 110 9
13 19 20 24 17 5 -3 9 -1 9 4 0 5 132 142 293 304 160 162 304 308 318 324 15
16 60 58 100 94 73 64 85 87 64 120 -32 50 -34 59 -14 84 47 60 9 26 -108 -96
-285 -297 -341 -354 -653 -662 -179 -177 -392 -391 -475 -476 -82 -85 -188
-194 -235 -241 l-85 -87 -73 -1 -72 -2 177 179 c98 98 289 291 425 428 136
137 418 420 628 628 400 399 393 391 354 436 -11 13 -10 21 6 48 11 18 15 32
10 32 -6 0 -317 -308 -692 -684 -376 -376 -741 -737 -813 -802 -71 -65 -138
-126 -148 -135 -22 -20 -17 -19 -497 -60 -212 -18 -387 -34 -390 -37 -3 -3 1
-7 8 -9 6 -3 12 -11 12 -19 0 -9 5 -12 10 -9 6 3 10 -1 10 -9 0 -9 5 -16 10
-16 6 0 10 -6 10 -14 0 -10 -16 -17 -45 -22 -45 -6 -58 -20 -30 -30 8 -4 15
-12 15 -20 0 -8 5 -14 11 -14 6 0 9 -9 6 -20 -4 -14 0 -20 11 -20 38 0 -8 -18
-75 -29 -72 -13 -87 -22 -59 -38 8 -4 17 -20 21 -35 6 -25 4 -27 -29 -33 -20
-4 -36 -9 -36 -12 0 -3 9 -18 21 -34 11 -16 22 -40 25 -53 7 -39 13 -38 -796
-81 -157 -8 -368 -20 -470 -25 -102 -5 -320 -14 -485 -20 -310 -10 -430 -18
-421 -27 2 -3 119 0 258 6 139 7 402 18 583 26 182 8 366 17 410 20 191 13
803 45 861 45 49 0 67 -4 81 -19 10 -10 25 -20 33 -23 8 -3 -8 -10 -37 -16
-53 -12 -207 -23 -578 -42 -115 -6 -336 -17 -490 -25 -292 -15 -679 -34 -850
-41 -144 -7 -162 -11 -182 -42 -10 -15 -23 -33 -30 -40 -7 -7 -13 -17 -13 -20
0 -4 -11 -20 -26 -35 -14 -15 -22 -32 -19 -37 3 -6 1 -10 -5 -10 -14 0 -63
-54 -101 -113 -17 -26 -34 -47 -38 -47 -3 0 -38 9 -76 20 -39 11 -236 56 -440
100 -335 72 -656 145 -1200 274 -292 69 -433 102 -515 120 -352 76 -629 140
-700 160 -47 13 -97 26 -111 30 -28 6 -71 50 -329 336 -52 58 -119 132 -150
165 -30 33 -82 91 -115 129 -33 38 -65 74 -70 80 -6 6 -105 124 -220 261 -115
138 -221 264 -236 280 -51 56 -69 78 -69 84 0 8 16 22 95 81 33 25 100 76 148
114 80 62 91 67 111 57 12 -7 27 -21 34 -31 10 -16 7 -24 -18 -49 -17 -16 -30
-33 -30 -38 0 -4 21 -26 46 -48 65 -57 454 -451 454 -460 0 -1 21 -24 48 -51
26 -27 76 -82 112 -123 36 -41 92 -102 124 -135 33 -34 60 -64 60 -67 1 -4 22
-28 48 -53 26 -25 45 -46 41 -46 -4 0 2 -7 13 -15 10 -8 16 -15 13 -15 -3 0
31 -38 75 -85 l81 -84 120 -31 c66 -17 140 -34 165 -37 25 -3 47 -9 48 -14 2
-5 14 -9 27 -9 12 0 65 -11 116 -24 52 -13 132 -31 179 -40 47 -10 121 -26
165 -36 44 -10 99 -21 123 -25 24 -4 41 -9 38 -12 -3 -3 -56 4 -118 16 -293
56 -471 92 -558 111 -52 12 -122 28 -155 35 -33 7 -78 18 -100 23 -22 6 -65
16 -95 22 -52 10 -59 16 -113 83 -116 146 -223 268 -373 427 -120 127 -603
605 -609 603 -3 -1 -20 -14 -36 -28 l-31 -25 124 -124 c67 -67 160 -161 205
-207 45 -46 88 -90 95 -97 138 -139 208 -214 208 -222 0 -6 5 -8 10 -5 6 3 13
-2 17 -12 7 -19 63 -73 76 -73 4 0 7 -5 7 -10 0 -11 35 -53 93 -112 21 -21 35
-38 30 -38 -4 -1 3 -7 17 -15 14 -8 21 -14 16 -15 -5 0 7 -17 26 -37 71 -76
118 -130 118 -137 0 -3 8 -14 18 -24 32 -34 52 -62 52 -72 0 -11 58 -28 200
-59 52 -12 112 -26 132 -32 21 -5 93 -21 160 -34 146 -29 377 -77 468 -99 36
-8 81 -17 100 -20 19 -3 73 -14 120 -24 394 -86 478 -105 495 -112 11 -5 45
-13 75 -19 30 -6 120 -24 200 -42 80 -17 165 -33 190 -36 25 -3 47 -8 50 -13
3 -4 28 -10 57 -13 29 -3 56 -8 61 -11 5 -3 24 -8 43 -11 19 -3 83 -17 144
-30 60 -14 121 -25 136 -25 25 0 69 32 69 50 0 4 12 22 28 38 56 59 82 90 82
99 0 4 19 29 43 55 71 78 97 110 97 119 0 4 9 13 20 19 11 6 19 14 17 19 -1 5
10 23 26 40 15 17 27 34 27 38 1 5 14 19 30 33 17 13 30 28 30 32 0 5 5 14 10
21 6 7 20 23 31 37 11 14 31 37 45 52 13 15 24 32 24 38 0 5 5 10 10 10 6 0
10 5 10 10 0 6 10 21 23 34 40 41 67 76 67 86 0 6 7 10 15 10 8 0 15 5 15 10
0 6 22 39 49 73 49 62 49 62 30 85 l-18 23 -20 -23 c-10 -13 -37 -44 -58 -69
-22 -25 -79 -97 -128 -160 -49 -63 -92 -116 -95 -119 -3 -3 -53 -61 -110 -130
-58 -68 -115 -136 -127 -150 -11 -14 -53 -63 -93 -110 -108 -128 -98 -122
-178 -98 -37 11 -94 26 -127 33 -33 7 -100 23 -150 35 -49 11 -123 27 -163 35
-39 8 -80 19 -90 25 -14 10 -13 10 8 5 14 -3 36 -8 50 -10 14 -2 61 -11 105
-20 44 -10 98 -20 120 -24 22 -5 58 -13 80 -19 22 -6 63 -13 90 -17 56 -7 42
-15 143 92 12 13 22 28 22 33 0 5 8 15 18 22 9 7 23 25 31 40 8 16 16 26 19
23 3 -2 19 13 36 34 170 209 189 230 199 224 4 -2 7 3 7 12 0 9 14 28 30 42
17 13 30 30 30 37 0 6 25 34 55 61 30 26 53 50 51 52 -2 2 21 29 50 59 30 30
54 58 54 62 0 4 15 23 33 42 49 51 81 101 71 109 -5 3 -9 16 -8 29 1 12 -3 25
-7 28 -11 6 -13 4 -104 -101 -74 -85 -105 -121 -200 -225 -131 -144 -299 -333
-332 -373 -20 -23 -56 -64 -80 -90 l-46 -49 -286 57 c-477 95 -1524 309 -1731
354 -47 10 -179 38 -293 62 -236 48 -194 26 -337 184 -35 39 -105 115 -156
170 -50 55 -136 150 -190 210 -157 177 -318 348 -486 519 -108 109 -154 163
-148 171 5 6 39 31 74 56 36 24 66 49 66 55 0 6 -11 20 -25 32 -14 12 -25 26
-25 32 0 14 101 91 113 87 28 -9 29 -34 3 -60 -31 -31 -33 -43 -6 -57 11 -6
18 -15 15 -21 -4 -5 -1 -9 5 -9 14 0 40 -25 40 -39 0 -6 7 -11 16 -11 8 0 12
-4 9 -10 -3 -5 1 -10 9 -10 9 0 16 -4 16 -10 0 -5 54 -64 120 -130 66 -66 120
-122 120 -124 0 -2 80 -85 178 -184 97 -100 209 -215 247 -257 39 -42 82 -88
98 -102 15 -15 27 -32 27 -40 0 -7 7 -13 15 -13 8 0 15 -3 15 -7 0 -5 11 -21
25 -37 14 -16 25 -33 25 -38 0 -4 7 -8 15 -8 8 0 15 -4 15 -9 0 -19 67 -79 95
-85 17 -4 46 -11 65 -15 85 -21 287 -64 305 -65 11 0 22 -4 25 -8 3 -4 48 -14
100 -22 52 -9 127 -23 165 -32 63 -14 125 -26 280 -54 28 -5 75 -14 105 -20
59 -12 79 -16 125 -24 17 -3 55 -10 85 -16 30 -6 91 -17 135 -25 44 -8 143
-26 220 -40 77 -14 172 -30 210 -35 39 -5 88 -14 110 -20 82 -21 228 -41 255
-35 32 7 45 19 120 106 30 35 85 95 121 134 116 122 106 111 285 320 162 189
244 276 255 269 5 -3 9 0 9 5 0 6 7 11 16 11 8 0 12 4 9 10 -3 5 0 7 8 4 8 -3
18 -1 22 5 10 17 35 13 35 -5 0 -12 -414 -497 -499 -585 -9 -9 -50 -54 -91
-100 -102 -114 -213 -233 -221 -237 -3 -1 -118 18 -255 43 -137 26 -274 50
-304 55 -91 14 -326 59 -480 91 -80 16 -217 43 -305 59 -167 31 -624 124 -780
160 -49 11 -128 29 -175 39 -69 16 -89 25 -105 47 -18 26 -78 92 -333 374
-153 168 -309 336 -427 460 -61 63 -137 143 -170 178 -53 55 -88 81 -70 52 4
-6 -5 -20 -19 -31 -29 -23 -34 -56 -11 -65 8 -4 15 -12 15 -20 0 -8 6 -14 13
-14 7 0 20 -8 28 -17 9 -10 25 -25 35 -34 31 -26 296 -308 371 -394 38 -44 87
-98 108 -121 52 -54 165 -180 201 -224 16 -19 45 -51 64 -71 36 -36 108 -117
161 -179 50 -59 63 -72 86 -87 20 -14 154 -45 333 -78 107 -20 228 -44 275
-55 22 -5 123 -25 225 -44 102 -20 246 -47 320 -62 74 -14 148 -28 164 -31 16
-3 40 -9 53 -14 14 -5 28 -7 33 -4 4 3 21 1 36 -4 41 -13 143 -33 419 -86 132
-24 263 -50 290 -56 28 -5 78 -13 113 -16 l63 -5 67 69 c37 38 88 94 114 124
26 31 70 80 98 109 27 29 50 54 50 56 0 4 60 72 103 117 15 16 27 31 27 33 0
3 10 15 23 28 12 13 42 47 67 76 107 127 276 300 293 300 7 0 28 -16 47 -35
l33 -34 -24 -36 c-13 -19 -27 -35 -31 -35 -5 0 -8 -7 -8 -15 0 -8 4 -15 9 -15
5 0 23 -11 39 -25 24 -20 34 -23 58 -15 16 4 23 9 16 9 -7 1 -11 5 -7 11 3 5
12 7 20 3 8 -3 15 0 15 7 0 7 8 9 21 5 15 -5 19 -4 15 4 -5 7 4 11 23 11 31 0
44 24 19 33 -7 2 -10 8 -6 12 4 4 18 -5 32 -20 l25 -27 -2 27 c-1 14 -9 31
-17 36 -13 9 -12 10 2 5 9 -2 31 -1 47 4 18 5 33 5 36 -1 6 -9 -13 -13 -45
-10 -11 1 -11 -1 2 -9 21 -13 58 3 58 25 0 18 37 20 43 3 6 -19 59 33 54 52
-3 12 3 15 30 12 29 -4 33 -1 33 19 0 17 3 20 9 10 6 -9 10 -10 16 -2 4 7 16
9 28 5 19 -6 20 -5 8 10 -18 21 4 22 25 1 12 -12 19 -12 34 -3 11 7 17 14 15
17 -3 2 -11 -2 -20 -9 -16 -13 -20 -3 -7 17 4 7 18 11 30 8 12 -2 22 1 22 7 0
5 7 7 16 4 14 -5 15 -4 5 8 -9 11 -7 15 14 20 14 4 24 10 21 15 -3 4 1 8 9 8
22 0 18 -14 -7 -31 -12 -9 -18 -16 -12 -16 16 0 64 44 64 58 0 10 5 10 20 2
15 -8 20 -8 20 3 0 7 12 19 28 26 51 25 56 27 59 37 4 14 -15 39 -24 31 -4 -5
-2 -11 4 -15 8 -5 9 -12 2 -22 -8 -13 -10 -13 -19 0 -16 25 -12 50 10 50 13 0
18 5 14 15 -4 9 -19 15 -38 15 -17 0 -38 5 -46 10 -10 7 -3 8 25 5 22 -3 33
-3 25 1 -8 3 -22 8 -30 11 -8 4 -21 5 -27 4 -7 -1 -10 4 -8 11 4 9 -2 14 -14
14 -13 0 -17 -5 -13 -16 5 -13 3 -13 -11 -1 -9 7 -17 20 -17 28 0 12 -3 12
-16 -1 -18 -19 -30 -20 -40 -4 -5 7 -11 5 -21 -7 -12 -18 -13 -18 -13 -1 0 13
-5 16 -19 11 -11 -3 -22 -1 -26 5 -4 6 -13 9 -20 6 -8 -3 -16 0 -18 7 -3 9 -8
9 -18 0 -9 -10 -10 -13 -1 -13 7 0 12 -4 12 -9 0 -5 -9 -7 -20 -4 -11 3 -18 9
-15 13 3 4 -2 11 -11 14 -10 4 -13 2 -8 -6 5 -8 2 -9 -10 -5 -10 4 -27 2 -38
-4 -15 -8 -22 -8 -28 1 -5 8 -9 7 -14 -5 -3 -9 -3 -22 1 -27 4 -7 1 -8 -6 -4
-7 5 -10 14 -7 22 3 8 1 14 -3 14 -5 0 -18 3 -28 6 -16 5 -16 4 2 -11 19 -16
19 -16 -10 -9 -16 4 -33 11 -36 16 -3 6 -9 -1 -12 -13 -5 -19 -9 -21 -19 -11
-18 18 -38 15 -38 -5 0 -10 -3 -14 -8 -8 -10 15 -60 15 -65 0 -3 -7 -18 -10
-39 -8 -72 8 -131 1 -155 -18 -15 -12 -16 -12 -10 4 4 11 2 17 -8 17 -8 0 -15
-7 -15 -15 0 -8 -7 -15 -15 -15 -17 0 -20 25 -5 35 18 11 11 23 -50 92 -33 37
-60 71 -60 76 0 5 25 36 56 68 48 49 72 64 158 100 56 23 127 53 159 67 48 21
67 24 115 19 31 -4 197 -20 367 -37 171 -16 345 -34 388 -38 59 -6 85 -5 106
6 l29 13 -30 60 c-16 33 -27 66 -24 74 3 8 30 28 61 46 30 17 55 32 55 33 0 2
-7 17 -16 34 -8 17 -18 47 -21 66 -5 32 -2 37 30 56 l35 21 -20 49 c-16 40
-24 48 -37 41 -14 -8 -126 -59 -176 -81 -11 -5 -36 -13 -55 -19 -20 -6 -105
-41 -190 -77 -85 -36 -243 -101 -350 -145 -496 -204 -531 -219 -558 -236 -12
-7 -53 -18 -90 -22 -37 -5 -452 -9 -922 -10 -914 -1 -1907 -10 -1927 -16 -7
-3 -13 -9 -13 -14 0 -13 87 -19 355 -26 528 -12 1299 -33 1470 -40 72 -3 267
-10 435 -16 168 -5 343 -12 390 -13 47 -2 100 -4 118 -5 17 -1 32 -5 32 -11 0
-13 -218 -245 -486 -517 l-219 -223 -400 80 c-443 90 -773 161 -1155 252 -140
33 -320 75 -400 94 l-145 33 -95 99 c-86 89 -546 562 -764 787 -52 53 -85 81
-82 68 6 -18 0 -27 -34 -48 -43 -27 -43 -36 -5 -70 6 -5 33 -35 59 -65 27 -30
85 -93 130 -140 45 -47 143 -152 218 -235 74 -82 166 -179 204 -214 38 -36
124 -118 190 -183 67 -65 130 -118 139 -118 9 0 30 -11 47 -25 16 -14 42 -28
56 -31 15 -3 46 -12 70 -20 23 -8 51 -14 60 -14 18 0 104 -20 272 -62 47 -12
95 -22 108 -24 13 -1 74 -14 135 -28 224 -51 625 -132 942 -191 77 -15 195
-37 262 -51 67 -13 134 -24 148 -24 17 0 44 18 84 58 33 31 87 83 120 114 34
32 61 61 61 65 1 5 13 17 27 28 14 11 58 53 98 93 39 39 74 72 78 72 7 0 56
48 57 55 0 11 89 92 94 87 4 -3 6 2 6 11 0 9 7 17 15 17 8 0 15 7 15 15 0 8 6
15 14 15 8 0 21 7 30 15 17 17 66 39 82 36 7 -1 14 5 18 14 6 16 56 21 56 6 0
-5 -44 -58 -97 -117 -54 -59 -130 -144 -169 -189 -39 -44 -163 -174 -275 -287
l-204 -207 -150 30 c-156 31 -604 116 -760 144 -202 36 -760 146 -1045 205
-107 23 -223 47 -258 53 -61 11 -63 12 -150 106 -80 88 -260 275 -541 563 -63
64 -118 115 -122 113 -4 -3 -6 1 -5 8 2 20 -75 102 -83 88 -5 -7 -17 -1 -36
19 -16 16 -26 32 -23 35 3 4 15 -6 27 -21 12 -15 24 -24 28 -20 3 3 -29 43
-73 89 -43 45 -101 106 -129 135 -27 28 -50 57 -50 62 0 6 39 36 86 68 74 49
85 59 76 74 -6 9 -9 19 -7 21 3 2 59 36 125 76 119 73 250 156 439 279 l100
64 125 -12 c69 -6 205 -20 301 -30 96 -11 229 -24 295 -30 129 -11 270 -25
405 -41 79 -9 477 -48 705 -69 55 -5 251 -23 435 -41 354 -33 375 -33 665 -5
154 16 502 45 840 71 105 9 237 20 295 26 l105 11 197 -99 c108 -54 197 -103
198 -109 0 -6 -18 -17 -40 -24 -22 -7 -40 -16 -40 -20 0 -5 125 -66 183 -89 5
-2 4 6 -2 17 -14 26 -25 19 439 269 107 58 229 125 270 148 41 23 150 82 242
131 l167 89 0 459 c1 356 4 462 14 468 7 5 8 8 1 8 -7 0 -11 19 -10 47 0 44
-2 48 -29 55 -17 5 -129 59 -250 121 l-220 112 -7 50 c-3 28 -8 109 -11 182
-6 124 -5 132 14 138 13 4 19 15 19 34 0 28 1 28 223 91 122 34 247 70 277 80
30 10 57 19 59 19 2 1 27 -12 55 -28z m-6420 -2662 c-3 -5 -9 -7 -14 -4 -4 3
-10 -1 -13 -7 -2 -7 -8 -10 -12 -5 -5 4 0 14 11 21 20 15 39 12 28 -5z m-44
-33 c0 -3 -4 -8 -10 -11 -5 -3 -10 -1 -10 4 0 6 5 11 10 11 6 0 10 -2 10 -4z
m-110 -130 c0 -5 -9 -1 -20 9 -11 10 -17 22 -14 27 6 9 33 -20 34 -36z m581
-603 c13 -16 12 -17 -3 -4 -10 7 -18 15 -18 17 0 8 8 3 21 -13z m4319 -78 c-7
-9 -15 -13 -19 -10 -3 3 1 10 9 15 21 14 24 12 10 -5z m-170 -85 c0 -5 -2 -10
-4 -10 -3 0 -8 5 -11 10 -3 6 -1 10 4 10 6 0 11 -4 11 -10z m-230 -140 c0 -5
-5 -10 -11 -10 -5 0 -7 5 -4 10 3 6 8 10 11 10 2 0 4 -4 4 -10z m-2640 -830
c0 -5 -4 -10 -9 -10 -6 0 -13 5 -16 10 -3 6 1 10 9 10 9 0 16 -4 16 -10z m183
-35 c43 -9 76 -19 73 -22 -7 -8 -149 27 -161 40 -7 7 -7 8 0 5 6 -3 45 -13 88
-23z m122 -35 c3 -5 2 -10 -4 -10 -5 0 -13 5 -16 10 -3 6 -2 10 4 10 5 0 13
-4 16 -10z m70 -10 c13 -5 14 -9 5 -9 -8 0 -24 4 -35 9 -13 5 -14 9 -5 9 8 0
24 -4 35 -9z m150 -30 c55 -11 116 -23 135 -26 19 -3 42 -8 50 -11 8 -3 22 -7
30 -8 35 -4 81 -17 77 -21 -4 -4 -109 14 -237 41 -36 8 -90 19 -120 25 -55 12
-76 20 -49 20 8 0 59 -9 114 -20z m6602 -2 c2 -17 0 -19 -7 -8 -5 8 -6 18 -4
22 8 12 10 10 11 -14z m41 -3 c-3 -3 -9 2 -12 12 -6 14 -5 15 5 6 7 -7 10 -15
7 -18z m88 10 c3 -8 15 -17 26 -21 16 -5 18 -8 7 -15 -12 -8 -12 -11 1 -19 21
-13 43 -13 34 2 -4 7 -3 8 4 4 18 -11 14 -26 -7 -26 -13 0 -21 -8 -23 -22 -4
-30 -30 -34 -46 -8 -12 20 -11 20 7 11 13 -7 22 -8 26 -1 3 5 1 10 -5 10 -7 0
-10 7 -6 15 4 11 -2 15 -22 15 -23 1 -24 2 -9 11 9 5 17 14 17 19 0 15 -28 12
-33 -2 -3 -8 -6 -6 -6 5 -1 9 5 17 12 17 8 0 7 4 -3 10 -13 8 -12 10 3 10 10
0 20 -7 23 -15z m-208 -52 c48 -16 82 -32 82 -40 0 -7 -6 -13 -12 -13 -29 1
-232 76 -235 87 -5 14 49 3 165 -34z m-809 -34 c13 -38 13 -39 2 -39 -5 0 -11
8 -14 18 -2 9 -8 25 -12 35 -4 9 -3 17 3 17 6 0 15 -14 21 -31z m-5349 2 c0
-5 -9 -7 -20 -4 -11 3 -20 7 -20 9 0 2 9 4 20 4 11 0 20 -4 20 -9z m5501 -33
c-9 -9 -61 -21 -61 -14 0 4 7 17 16 31 14 22 16 23 33 7 10 -9 15 -20 12 -24z
m979 38 c0 -3 -4 -8 -10 -11 -5 -3 -10 -1 -10 4 0 6 5 11 10 11 6 0 10 -2 10
-4z m16 -38 c5 -7 2 -9 -8 -5 -9 3 -24 -1 -35 -8 -10 -8 -25 -14 -33 -14 -8 0
1 8 20 19 42 23 47 24 56 8z m-591 -36 c-3 -3 -11 0 -18 7 -9 10 -8 11 6 5 10
-3 15 -9 12 -12z m90 3 c28 -8 57 -18 65 -21 8 -4 24 -8 35 -9 48 -7 135 -37
130 -46 -3 -5 0 -6 8 -3 17 6 31 -22 15 -32 -7 -4 -6 -9 3 -15 22 -14 32 -11
25 7 -5 13 -1 15 19 10 14 -4 25 -2 25 4 0 5 5 10 11 10 6 0 9 -6 6 -14 -4 -9
3 -16 19 -20 25 -7 34 -26 12 -26 -9 0 -8 -3 2 -10 22 -13 -2 -33 -39 -33 -17
0 -28 -3 -26 -7 7 -11 -93 -40 -113 -33 -9 3 -14 2 -9 -2 6 -7 -49 -39 -61
-35 -1 0 -19 -7 -40 -16 -20 -9 -50 -18 -67 -20 -16 -2 -32 -9 -33 -14 -2 -6
-21 -13 -43 -16 -21 -4 -39 -10 -39 -15 0 -5 -7 -9 -15 -9 -9 0 -35 -9 -57
-20 -23 -11 -48 -20 -55 -20 -8 0 -25 -8 -40 -17 -28 -18 -61 -24 -69 -12 -2
4 -16 -3 -31 -17 -25 -23 -60 -34 -48 -14 3 6 -1 7 -9 4 -9 -3 -16 -11 -16
-16 0 -6 -7 -7 -16 -4 -8 3 -13 2 -10 -3 6 -9 -59 -33 -124 -46 -19 -4 -41
-12 -48 -18 -7 -5 -16 -7 -20 -3 -10 11 39 46 66 46 12 0 22 4 22 9 0 8 45 23
73 25 4 1 12 8 17 16 5 8 10 12 10 8 0 -4 13 -2 30 3 25 9 28 14 20 30 -6 10
-17 16 -25 13 -8 -4 -15 -2 -15 4 0 15 23 20 40 9 11 -6 28 -4 54 7 21 9 42
14 46 11 5 -3 11 -1 15 5 3 5 15 10 26 10 11 0 18 -4 14 -9 -3 -5 -1 -12 5
-16 5 -3 10 0 10 9 0 8 3 22 7 31 5 15 1 17 -28 12 -79 -12 -100 -16 -109 -22
-6 -3 -10 1 -10 10 0 11 5 15 15 11 8 -3 15 -1 15 4 0 6 11 10 25 10 15 0 25
6 25 14 0 16 27 29 43 19 6 -4 8 0 4 10 -6 16 2 21 29 18 6 -1 10 9 9 22 -2
15 2 24 12 24 10 0 14 -8 11 -27 -5 -30 8 -45 39 -47 23 -2 23 -1 6 30 -21 41
-23 51 -11 68 8 11 9 10 5 -3 -8 -23 20 -45 35 -30 9 9 8 12 -2 12 -8 0 3 9
25 19 38 17 39 18 18 29 -12 7 -29 9 -37 6 -9 -3 -16 -1 -16 5 0 20 50 25 64
6 12 -16 13 -16 19 -1 4 10 1 16 -8 16 -8 0 -15 5 -15 10 0 16 30 11 37 -6 3
-9 1 -25 -6 -36 -22 -35 -6 -28 18 8 18 26 21 37 12 48 -15 18 11 30 28 13 8
-8 11 -8 11 2 0 8 6 11 15 7 8 -3 15 -1 15 5 0 6 4 8 8 5 5 -3 9 1 9 9 0 11
-4 12 -13 4 -7 -6 -22 -8 -33 -4 -10 3 -22 1 -26 -5 -11 -18 -25 -11 -25 13 0
12 -9 28 -20 35 -20 12 -27 32 -12 32 4 0 30 -7 57 -15z m397 -3 c7 -7 8 -12
4 -12 -5 0 -2 -8 5 -17 12 -15 12 -16 -2 -11 -9 4 -22 1 -28 -5 -6 -6 -14 -8
-17 -4 -4 4 4 15 17 26 l24 20 -22 1 c-13 0 -23 4 -23 9 0 12 27 8 42 -7z
m168 6 c0 -15 -18 -17 -30 -3 -9 11 -8 14 9 12 12 -1 21 -5 21 -9z m40 -8 c8
-5 15 -14 15 -20 0 -5 3 -10 8 -10 11 1 67 -30 67 -36 0 -3 -9 -2 -20 1 -15 5
-20 2 -20 -12 -1 -13 -5 -11 -16 10 -8 15 -17 27 -20 27 -8 0 -30 -23 -38 -40
-3 -9 -4 -5 -2 8 2 12 1 22 -4 22 -4 0 -11 7 -14 16 -5 12 -2 15 10 10 25 -10
37 4 17 20 -20 15 -6 19 17 4z m-85 -10 c-3 -5 -11 -10 -16 -10 -6 0 -7 5 -4
10 3 6 11 10 16 10 6 0 7 -4 4 -10z m-14 -33 c-6 -8 -8 -17 -4 -21 4 -4 0 -4
-10 0 -14 5 -15 9 -6 20 6 8 16 14 21 14 7 0 6 -5 -1 -13z m-2311 -9 c-14 -5
-35 -12 -46 -14 -12 -2 -35 -11 -50 -19 -16 -8 -34 -15 -41 -15 -33 0 -19 -28
48 -91 41 -37 77 -68 82 -69 4 0 7 -5 7 -11 0 -5 -5 -7 -12 -3 -6 4 -8 3 -5
-3 4 -6 19 -8 33 -5 20 4 25 2 19 -8 -4 -7 -21 -10 -40 -8 -19 2 -31 0 -29 -4
12 -19 94 -3 94 18 0 8 5 14 10 14 6 0 10 -7 10 -15 0 -8 6 -15 13 -15 19 0
36 20 30 36 -3 10 0 12 10 8 9 -3 13 -12 10 -22 -5 -15 -4 -15 13 1 16 15 17
19 4 27 -13 8 -13 10 2 10 20 0 32 -16 18 -25 -6 -4 -8 -11 -4 -16 4 -6 11 -6
19 1 10 8 15 8 21 -1 4 -8 3 -9 -4 -5 -7 4 -12 5 -12 2 0 -2 -3 -13 -6 -23 -4
-14 -4 -15 4 -4 5 7 15 10 21 6 9 -5 9 -10 0 -21 -8 -10 -15 -11 -24 -4 -8 6
-16 5 -25 -3 -12 -10 -12 -9 -1 6 12 15 11 17 -10 16 -38 -1 -95 -24 -81 -33
19 -12 14 -26 -10 -26 -17 0 -19 -3 -10 -12 8 -8 19 -8 34 -2 26 11 78 7 78
-6 0 -4 -11 -7 -25 -5 -14 1 -25 -1 -25 -5 0 -5 -10 -6 -22 -3 -18 4 -20 3 -8
-6 12 -8 9 -10 -15 -8 -18 1 -29 -3 -28 -9 1 -7 -6 -10 -17 -7 -11 3 -26 -2
-35 -10 -19 -19 -19 -23 0 -31 8 -3 14 0 12 6 -1 6 4 13 12 16 8 3 11 0 7 -7
-4 -6 -10 -23 -12 -37 -4 -22 -2 -25 13 -20 15 6 15 5 -2 -14 -10 -11 -23 -20
-29 -19 -6 0 -6 3 2 6 22 9 13 25 -10 17 -23 -6 -23 -6 1 15 26 23 16 29 -14
7 -12 -8 -16 -20 -12 -35 3 -11 1 -19 -4 -15 -5 3 -9 17 -10 32 l-1 27 -7 -25
c-4 -14 -3 -31 2 -37 7 -10 4 -13 -12 -13 -16 0 -21 5 -18 18 17 59 17 74 5
70 -7 -3 -14 -11 -14 -19 -1 -8 -2 -20 -3 -27 0 -7 -5 -11 -10 -7 -5 3 -12 1
-16 -5 -3 -5 -3 -10 2 -10 4 0 16 -11 25 -24 17 -23 16 -24 -2 -29 -11 -3 -17
-1 -14 4 7 12 -25 44 -34 34 -4 -4 -1 -10 6 -12 6 -3 12 -14 12 -26 0 -17 -2
-19 -9 -8 -5 7 -14 10 -20 7 -7 -5 -11 1 -11 14 0 12 -4 19 -10 15 -5 -3 -6
-13 -3 -23 6 -15 5 -16 -12 -2 -19 15 -19 14 -3 -12 17 -26 9 -32 -20 -15 -14
9 -52 0 -52 -12 0 -22 28 -31 59 -20 18 6 35 9 38 5 4 -3 -1 -6 -10 -6 -25 0
-9 -30 17 -31 20 0 20 -1 1 -9 -27 -12 -37 -12 -31 -1 9 14 -25 23 -40 10 -11
-9 -14 -8 -14 1 0 7 -7 10 -17 6 -9 -4 -20 -1 -24 6 -4 7 -11 9 -15 5 -4 -3 4
-15 16 -25 17 -14 21 -24 16 -38 -6 -12 -10 -15 -13 -6 -3 6 -12 12 -20 12
-14 0 -14 -2 0 -18 21 -23 22 -33 2 -26 -8 3 -21 -1 -30 -9 -11 -12 -12 -17
-2 -20 9 -4 9 -7 0 -18 -10 -10 -13 -10 -13 0 0 7 -4 10 -8 7 -5 -3 -6 8 -4
24 6 44 -31 58 -136 47 -13 -1 -19 -11 -20 -34 -2 -26 2 -35 25 -46 35 -18
106 -29 98 -16 -7 10 1 11 33 3 12 -4 22 -11 22 -16 0 -5 -4 -6 -10 -3 -5 3
-10 2 -10 -4 0 -6 -15 -15 -32 -20 -27 -7 -28 -9 -10 -10 13 -1 32 4 43 9 13
7 19 7 19 0 0 -5 4 -10 9 -10 13 0 21 39 9 46 -6 4 -6 10 1 17 7 7 7 14 0 24
-9 10 -8 13 4 13 21 0 30 -17 22 -38 -4 -9 -9 -32 -11 -49 -2 -27 1 -33 15
-33 11 0 21 7 25 15 3 8 17 15 31 15 15 0 24 -4 20 -10 -3 -5 -13 -7 -23 -4
-15 5 -15 4 1 -6 14 -9 21 -9 32 0 11 9 16 7 24 -9 16 -29 14 -33 -11 -20 -17
9 -20 9 -16 -3 8 -20 -15 -48 -31 -38 -14 8 -91 -27 -91 -42 0 -14 48 -9 64 7
8 8 19 15 24 15 14 0 25 -34 13 -38 -6 -2 -11 -8 -11 -14 0 -6 6 -6 15 2 8 7
15 9 15 5 0 -4 7 -2 15 5 8 7 15 17 15 22 0 6 -7 5 -15 -2 -8 -7 -15 -10 -15
-7 0 3 -3 12 -6 21 -5 12 0 16 17 16 31 1 63 25 54 42 -3 7 1 4 9 -6 15 -19
16 -19 41 10 l25 29 0 -27 c0 -15 -8 -31 -17 -37 -10 -5 -15 -12 -11 -16 10
-10 49 5 42 16 -3 6 0 9 7 8 8 -1 28 4 44 11 17 7 41 14 54 16 30 4 53 24 28
24 -25 0 -21 17 6 26 12 4 25 12 29 18 5 8 8 7 8 -2 0 -7 4 -10 10 -7 5 3 7 0
4 -9 -3 -8 -12 -12 -20 -9 -8 3 -14 0 -14 -6 0 -14 2 -14 60 5 49 16 79 39 66
51 -3 3 -14 -3 -25 -15 -18 -22 -18 -22 -36 -2 -10 11 -13 20 -7 20 6 0 12 -6
14 -12 3 -9 10 -7 23 6 13 12 27 16 46 12 15 -3 29 -2 32 2 2 4 2 1 0 -7 -3
-11 -1 -11 11 -2 8 7 20 10 26 6 5 -3 10 0 10 8 0 8 -10 19 -22 26 -22 11 -22
11 -1 6 12 -3 24 -1 28 5 3 5 11 10 17 10 7 0 6 -5 -2 -15 -15 -18 -5 -36 16
-28 14 5 14 3 3 -16 -8 -11 -17 -22 -21 -22 -19 -3 -24 -5 -33 -10 -20 -12
-65 -19 -65 -10 0 5 6 11 13 14 6 2 9 8 5 12 -11 11 -21 -1 -23 -28 -1 -15 -7
-21 -20 -19 -9 2 -14 -1 -11 -6 3 -5 -6 -8 -19 -6 -14 1 -43 -6 -65 -17 -21
-10 -50 -20 -62 -22 -13 -1 -25 -4 -28 -7 -14 -15 -170 -84 -184 -81 -4 1 -18
-4 -30 -12 -11 -7 -41 -19 -66 -27 -25 -8 -66 -25 -92 -37 -27 -13 -53 -23
-59 -23 -9 0 -100 -39 -139 -59 -9 -5 -30 -12 -48 -15 -17 -4 -34 -12 -37 -17
-4 -5 -13 -9 -22 -9 -9 0 -35 -8 -57 -19 -66 -30 -200 -81 -214 -81 -7 0 -20
-4 -30 -9 -9 -5 -30 -14 -47 -21 -16 -6 -43 -18 -58 -26 -16 -8 -34 -14 -40
-14 -11 0 -110 -38 -190 -74 -18 -7 -68 -26 -112 -41 -44 -15 -93 -33 -110
-40 -16 -7 -64 -25 -105 -40 -41 -14 -102 -37 -135 -50 -33 -13 -71 -27 -85
-31 -14 -3 -45 -16 -70 -26 -25 -11 -60 -27 -78 -35 -18 -8 -42 -16 -52 -18
-11 -2 -25 -7 -30 -10 -5 -3 -18 -8 -27 -10 -29 -7 -236 -86 -266 -102 -16 -8
-31 -12 -34 -9 -4 3 -16 0 -27 -7 -12 -8 -34 -17 -51 -21 -16 -4 -48 -16 -72
-27 -51 -23 -52 -23 -75 -2 -16 15 -20 15 -35 0 -27 -24 -73 -33 -84 -16 -15
24 -10 39 19 50 19 7 32 7 44 0 40 -25 27 13 -24 72 -30 34 -103 121 -163 192
-60 72 -111 132 -114 135 -4 3 -31 34 -61 70 -30 36 -60 70 -66 75 -6 6 -42
48 -80 95 -38 47 -71 87 -74 90 -3 3 -19 22 -35 43 -23 31 -26 40 -15 47 8 5
152 54 320 110 168 56 312 104 320 107 87 35 210 75 232 77 14 0 26 5 25 10
-1 5 21 17 48 26 28 9 57 19 65 23 8 3 125 45 260 93 135 48 306 109 380 136
74 27 152 55 173 61 20 6 37 15 37 19 0 4 7 8 15 8 7 0 164 49 347 109 183 61
421 138 528 171 107 34 213 69 235 77 34 13 181 28 305 31 33 1 34 0 10 -10z
m2150 -9 c0 -6 -4 -7 -10 -4 -5 3 -10 11 -10 16 0 6 5 7 10 4 6 -3 10 -11 10
-16z m380 11 c0 -5 -2 -10 -4 -10 -3 0 -8 5 -11 10 -3 6 -1 10 4 10 6 0 11 -4
11 -10z m-856 -15 c-7 -16 -24 -21 -24 -6 0 8 7 13 27 20 1 1 0 -6 -3 -14z
m523 -5 c-1 -11 -2 -20 -3 -20 -1 0 -9 3 -18 6 -12 5 -13 9 -3 20 17 19 26 17
24 -6z m-562 -19 c-6 -5 -25 10 -25 20 0 5 6 4 14 -3 8 -7 12 -15 11 -17z
m713 8 c-19 -13 -28 -11 -28 5 0 9 7 12 21 9 16 -4 17 -8 7 -14z m-68 -1 c0
-10 -19 -9 -45 2 -16 7 -14 8 12 7 18 -1 33 -5 33 -9z m155 2 c3 -5 -1 -10
-10 -10 -9 0 -13 5 -10 10 3 6 8 10 10 10 2 0 7 -4 10 -10z m-722 -12 c3 -8
-5 -14 -21 -15 -14 0 -29 -8 -34 -17 -5 -8 -15 -22 -23 -30 -8 -8 -15 -19 -15
-25 0 -14 -21 -14 -40 0 -11 8 -12 12 -2 16 6 2 9 10 6 15 -4 7 -2 8 4 4 6 -4
9 -13 5 -21 -3 -8 0 -15 5 -15 6 0 14 9 17 20 11 35 56 75 86 79 4 1 9 -5 12
-11z m586 -9 c-7 -4 -10 -11 -7 -14 4 -4 17 0 30 9 25 18 48 21 48 6 0 -5 -6
-10 -14 -10 -8 0 -41 -13 -73 -30 -65 -34 -83 -37 -83 -14 0 12 4 14 13 7 8
-7 22 0 47 27 19 20 39 35 44 32 4 -2 2 -8 -5 -13z m-2999 0 c0 -12 -31 -19
-47 -10 -17 9 -53 3 -53 -9 0 -4 12 -5 28 -2 81 14 -26 -27 -328 -127 -295
-97 -354 -113 -495 -135 -237 -37 -338 -51 -302 -40 18 6 18 6 0 20 -10 7 -22
13 -28 14 -5 0 -3 -5 5 -11 12 -9 12 -10 1 -7 -29 8 -21 25 18 37 22 6 43 17
47 23 5 7 2 9 -9 5 -16 -6 -41 15 -30 26 7 7 -10 10 -39 8 -10 -1 -18 0 -18 2
0 7 132 57 295 111 77 26 147 50 156 55 17 10 115 18 319 26 150 6 344 16 347
19 6 5 133 1 133 -5z m2930 -11 c0 -19 -2 -20 -10 -8 -13 19 -13 30 0 30 6 0
10 -10 10 -22z m-723 -10 c-3 -8 -6 -5 -6 6 -1 11 2 17 5 13 3 -3 4 -12 1 -19z
m-3092 -19 c4 -5 -120 -46 -315 -103 -41 -13 -85 -26 -97 -30 -14 -4 -23 -3
-23 3 0 5 8 12 18 15 9 3 32 28 50 56 18 27 37 50 42 50 15 0 12 -9 -11 -42
-12 -16 -18 -32 -14 -36 7 -8 44 37 45 55 0 21 22 26 139 32 131 7 159 7 166
0z m2023 -39 c7 -29 7 -40 -2 -40 -14 0 -40 56 -31 70 12 19 23 10 33 -30z
m-2438 20 c12 -8 4 -21 -45 -70 -33 -34 -93 -86 -132 -116 -40 -30 -73 -58
-73 -61 0 -4 3 -3 6 0 9 8 44 -11 44 -23 0 -16 -60 -12 -66 4 -4 11 -20 5 -67
-24 -144 -87 -335 -169 -527 -225 -114 -34 -160 -44 -260 -60 l-35 -5 35 12
c27 10 35 19 35 38 0 15 -6 25 -14 25 -8 0 -16 5 -18 12 -5 14 39 28 59 20 7
-3 0 -6 -16 -6 l-30 -1 22 -20 c22 -21 62 -27 62 -9 0 5 -4 8 -9 4 -5 -3 -12
-1 -16 5 -3 5 -2 10 4 10 6 0 8 7 4 16 -5 14 -1 16 21 12 25 -5 26 -4 12 10
-13 13 -19 14 -40 3 -17 -10 -29 -10 -42 -2 -13 7 -15 10 -5 11 16 0 51 29 51
42 0 4 -7 8 -15 8 -8 0 -15 2 -15 4 0 2 -3 13 -7 23 -6 16 -5 16 10 5 14 -12
19 -12 32 1 19 20 20 33 0 17 -8 -7 -21 -10 -28 -7 -15 6 -52 -31 -42 -41 3
-4 10 -1 14 7 6 10 10 9 15 -4 11 -29 7 -45 -9 -39 -12 5 -13 9 -4 20 10 12 8
13 -15 4 -15 -5 -34 -10 -42 -10 -22 0 -17 31 6 37 11 3 20 10 20 15 0 5 -4 6
-10 3 -6 -3 -7 1 -4 9 7 19 20 21 27 4 3 -8 6 -5 6 5 1 10 5 16 9 13 4 -2 9 5
9 17 2 15 0 18 -6 8 -5 -8 -11 -9 -15 -3 -3 5 3 17 14 27 11 10 20 23 20 29 0
6 -11 -1 -25 -16 -16 -17 -23 -34 -19 -45 4 -12 0 -10 -15 7 -22 27 -28 45
-10 34 6 -3 15 0 20 7 14 22 10 33 -6 19 -18 -15 -21 0 -6 28 5 9 12 25 15 35
7 21 26 23 26 2 0 -9 6 -12 15 -9 13 5 13 9 3 21 -8 11 -23 13 -49 9 -32 -5
-36 -4 -32 12 2 10 14 22 25 27 24 11 36 35 19 35 -6 0 -11 -7 -11 -15 0 -8
-4 -15 -10 -15 -15 0 0 29 21 41 11 5 63 12 117 15 53 3 113 7 132 9 19 2 103
7 185 11 122 6 611 37 650 42 6 1 17 -3 25 -8z m3700 -5 c-7 -8 -17 -15 -22
-15 -6 0 -5 7 2 15 7 8 17 15 22 15 6 0 5 -7 -2 -15z m-1310 -15 c0 -5 -2 -10
-4 -10 -3 0 -8 5 -11 10 -3 6 -1 10 4 10 6 0 11 -4 11 -10z m-43 -12 c-2 -7
-18 -13 -35 -13 -18 0 -32 -3 -32 -7 0 -5 -5 -8 -11 -8 -8 0 -8 4 1 15 8 9 22
12 43 9 25 -4 28 -3 17 5 -13 9 -12 11 3 11 11 0 17 -5 14 -12z m-107 -28 c0
-5 -5 -10 -11 -10 -5 0 -7 5 -4 10 3 6 8 10 11 10 2 0 4 -4 4 -10z m1113 -17
c-7 -2 -21 -2 -30 0 -10 3 -4 5 12 5 17 0 24 -2 18 -5z m287 -19 c0 -8 -4 -12
-10 -9 -5 3 -10 13 -10 21 0 8 5 12 10 9 6 -3 10 -13 10 -21z m-1374 1 c-8 -8
-18 -15 -22 -15 -3 0 -1 7 6 15 7 8 17 15 22 15 5 0 3 -7 -6 -15z m-159 -20
c0 -8 -4 -12 -9 -9 -4 3 -8 9 -8 15 0 5 4 9 8 9 5 0 9 -7 9 -15z m-2137 -3 c0
-4 -10 -9 -22 -9 -18 -2 -20 0 -8 7 18 12 30 13 30 2z m2295 -12 c-3 -5 -14
-10 -23 -9 -14 0 -13 2 3 9 27 11 27 11 20 0z m90 -10 c-3 -5 -12 -10 -18 -10
-7 0 -6 4 3 10 19 12 23 12 15 0z m-3507 -46 c11 -8 12 -13 4 -18 -7 -4 -12
-2 -12 3 0 6 -6 11 -14 11 -10 0 -12 7 -8 22 4 16 7 18 10 8 3 -8 12 -20 20
-26z m1155 18 c-12 -2 -24 -10 -27 -19 -4 -10 -2 -14 8 -10 9 4 13 0 12 -10
-2 -10 -13 -17 -29 -17 -30 -2 -33 4 -14 23 10 11 7 12 -15 7 -16 -3 -28 -3
-28 1 0 11 93 41 105 34 6 -3 0 -7 -12 -9z m83 -10 c11 -16 9 -18 -16 -14 -21
3 -29 -1 -33 -15 -3 -12 -5 -10 -6 9 -1 24 4 29 39 37 3 0 10 -7 16 -17z
m2062 6 c-2 -6 -10 -14 -16 -16 -7 -2 -10 2 -6 12 7 18 28 22 22 4z m97 -28
c-10 -11 -23 -20 -29 -20 -6 0 0 9 14 20 32 25 38 25 15 0z m1175 -4 c0 -3 -4
-8 -10 -11 -5 -3 -10 -1 -10 4 0 6 5 11 10 11 6 0 10 -2 10 -4z m-4592 -22
c-4 -11 -28 -14 -28 -4 0 8 22 20 28 14 2 -1 2 -6 0 -10z m3482 -16 c0 -13
-23 -5 -28 10 -2 7 2 10 12 6 9 -3 16 -11 16 -16z m-55 -26 c-3 -3 -11 0 -18
7 -9 10 -8 11 6 5 10 -3 15 -9 12 -12z m1105 14 c0 -3 -4 -8 -10 -11 -5 -3
-10 -1 -10 4 0 6 5 11 10 11 6 0 10 -2 10 -4z m-4512 -34 c7 -22 7 -29 -3 -29
-7 0 -11 6 -8 13 2 6 0 15 -6 19 -13 8 -14 25 -2 25 5 0 13 -13 19 -28z m1002
13 c-7 -9 -15 -13 -19 -10 -3 3 1 10 9 15 21 14 24 12 10 -5z m453 -16 c-17
-17 -37 -1 -22 17 8 10 15 12 23 4 7 -7 7 -13 -1 -21z m3020 16 c-3 -9 -8 -14
-10 -11 -3 3 -2 9 2 15 9 16 15 13 8 -4z m-33 -5 c0 -5 -5 -10 -11 -10 -5 0
-7 5 -4 10 3 6 8 10 11 10 2 0 4 -4 4 -10z m-1225 -20 c-3 -5 -12 -10 -18 -10
-7 0 -6 4 3 10 19 12 23 12 15 0z m69 -6 c5 -14 4 -15 -9 -4 -17 14 -19 20 -6
20 5 0 12 -7 15 -16z m46 -14 c0 -5 -5 -10 -11 -10 -5 0 -7 5 -4 10 3 6 8 10
11 10 2 0 4 -4 4 -10z m-3350 -30 c13 -9 12 -12 -4 -21 -15 -9 -16 -13 -5 -20
12 -7 11 -9 -1 -9 -8 0 -22 5 -30 10 -13 8 -13 10 2 10 23 0 34 20 17 31 -8 5
-9 9 -4 9 6 0 17 -5 25 -10z m3312 -12 c-7 -7 -12 -8 -12 -2 0 14 12 26 19 19
2 -3 -1 -11 -7 -17z m-2232 -55 c0 -13 -4 -21 -10 -18 -5 3 -10 20 -10 38 0
38 -17 25 -22 -17 -4 -35 -23 -45 -31 -17 -3 12 3 27 14 37 10 9 19 24 19 33
1 27 40 -28 40 -56z m240 57 c0 -5 -5 -10 -11 -10 -6 0 -9 -6 -6 -14 3 -8 0
-22 -8 -33 -13 -17 -14 -17 -20 -1 -4 10 1 28 12 42 19 26 33 33 33 16z
m-1413 -45 c-23 -22 -33 -18 -12 5 10 11 20 18 23 16 2 -3 -3 -12 -11 -21z
m4398 17 c-6 -5 -23 -14 -39 -21 -26 -11 -28 -10 -17 3 7 8 22 17 34 19 12 2
24 5 27 6 2 0 0 -3 -5 -7z m-4270 -51 c-3 -6 -11 -11 -17 -11 -6 0 -6 6 2 15
14 17 26 13 15 -4z m3095 9 c0 -5 -4 -10 -10 -10 -5 0 -10 5 -10 10 0 6 5 10
10 10 6 0 10 -4 10 -10z m-3210 -20 c0 -5 -4 -10 -10 -10 -5 0 -10 5 -10 10 0
6 5 10 10 10 6 0 10 -4 10 -10z m3270 -10 c0 -5 -2 -10 -4 -10 -3 0 -8 5 -11
10 -3 6 -1 10 4 10 6 0 11 -4 11 -10z m-157 -44 c4 -10 1 -13 -8 -9 -8 3 -12
9 -9 14 7 12 11 11 17 -5z m-3023 -6 c0 -5 -5 -10 -11 -10 -5 0 -7 5 -4 10 3
6 8 10 11 10 2 0 4 -4 4 -10z m-92 -25 c-3 -3 -9 2 -12 12 -6 14 -5 15 5 6 7
-7 10 -15 7 -18z m35 0 c-3 -9 -8 -14 -10 -11 -3 3 -2 9 2 15 9 16 15 13 8 -4z
m3247 5 c0 -5 -5 -10 -11 -10 -5 0 -7 5 -4 10 3 6 8 10 11 10 2 0 4 -4 4 -10z
m-3140 -4 c0 -2 -7 -9 -15 -16 -12 -10 -15 -10 -15 4 0 9 7 16 15 16 8 0 15
-2 15 -4z m3029 -9 c8 -11 5 -14 -19 -14 -17 0 -30 4 -30 9 0 5 5 6 10 3 6 -3
10 -1 10 4 0 15 15 14 29 -2z m-3179 -22 c7 -9 8 -15 2 -15 -5 0 -12 7 -16 15
-3 8 -4 15 -2 15 2 0 9 -7 16 -15z m3082 3 c7 7 17 12 23 12 5 0 -1 -9 -14
-19 -20 -16 -27 -17 -38 -6 -18 19 -16 30 2 15 12 -10 19 -10 27 -2z m-2987
-18 c3 -5 -1 -10 -10 -10 -9 0 -13 5 -10 10 3 6 8 10 10 10 2 0 7 -4 10 -10z
m3275 6 c0 -2 -7 -7 -16 -10 -8 -3 -12 -2 -9 4 6 10 25 14 25 6z m-329 -24
c-8 -3 -24 -16 -36 -30 l-22 -26 0 26 c0 17 5 25 16 24 9 0 15 4 14 10 -2 8 6
10 20 6 14 -4 17 -7 8 -10z m-3046 -2 c3 -5 1 -10 -4 -10 -6 0 -11 5 -11 10 0
6 2 10 4 10 3 0 8 -4 11 -10z m3105 6 c0 -3 -4 -8 -10 -11 -5 -3 -10 -1 -10 4
0 6 5 11 10 11 6 0 10 -2 10 -4z m157 -2 c-3 -3 -12 -4 -19 -1 -8 3 -5 6 6 6
11 1 17 -2 13 -5z m-117 -25 c0 -6 -4 -7 -10 -4 -5 3 -10 11 -10 16 0 6 5 7
10 4 6 -3 10 -11 10 -16z m365 11 c-3 -5 -12 -10 -18 -10 -7 0 -6 4 3 10 19
12 23 12 15 0z m295 0 c0 -5 -5 -10 -11 -10 -5 0 -7 5 -4 10 3 6 8 10 11 10 2
0 4 -4 4 -10z m-146 -12 c-5 -7 -2 -9 7 -6 23 9 22 -35 -2 -50 -19 -12 -19
-10 -15 25 6 46 5 43 12 43 3 0 2 -5 -2 -12z m86 -10 c0 -10 -40 -31 -47 -24
-3 3 -3 11 0 18 5 14 47 19 47 6z m-690 -8 c0 -5 -4 -10 -9 -10 -6 0 -13 5
-16 10 -3 6 1 10 9 10 9 0 16 -4 16 -10z m50 1 c0 -5 -10 -11 -22 -14 -22 -6
-22 -6 -4 8 23 17 26 18 26 6z m350 -1 c0 -5 -4 -10 -10 -10 -5 0 -10 5 -10
10 0 6 5 10 10 10 6 0 10 -4 10 -10z m-172 -41 c2 -8 -3 -7 -12 5 -8 10 -20
15 -26 11 -9 -5 -9 -10 -1 -18 6 -6 11 -15 11 -19 0 -13 -38 -9 -42 4 -3 8
-12 5 -28 -10 -13 -12 -27 -22 -32 -22 -4 0 -8 -5 -8 -11 0 -5 6 -7 13 -3 9 5
9 4 1 -5 -6 -6 -19 -9 -29 -5 -16 6 -15 9 6 25 13 10 18 19 11 19 -7 0 -10 5
-6 11 4 8 9 7 14 -2 6 -9 12 -9 25 4 20 20 27 21 44 5 11 -11 13 -10 8 4 -3
10 -2 20 4 23 5 4 6 12 2 18 -4 7 4 5 17 -4 13 -9 26 -22 28 -30z m88 34 c-9
-10 -56 -12 -61 -3 -3 4 11 8 31 8 19 0 33 -2 30 -5z m-359 -40 c0 -16 -2 -22
-4 -15 -3 6 -11 12 -19 12 -8 0 -14 5 -14 11 0 5 5 7 10 4 6 -3 10 -1 10 4 0
6 4 11 9 11 5 0 8 -12 8 -27z m373 17 c0 -5 -4 -10 -10 -10 -5 0 -10 5 -10 10
0 6 5 10 10 10 6 0 10 -4 10 -10z m-65 -10 c3 -5 1 -10 -4 -10 -6 0 -11 5 -11
10 0 6 2 10 4 10 3 0 8 -4 11 -10z m-198 -36 c-3 -3 -12 -4 -19 -1 -8 3 -5 6
6 6 11 1 17 -2 13 -5z m169 -21 c-10 -10 -19 5 -10 18 6 11 8 11 12 0 2 -7 1
-15 -2 -18z m-76 13 c0 -3 -4 -8 -10 -11 -5 -3 -10 -1 -10 4 0 6 5 11 10 11 6
0 10 -2 10 -4z m92 -28 c-7 -7 -12 -8 -12 -2 0 14 12 26 19 19 2 -3 -1 -11 -7
-17z m-62 1 c0 -6 9 -8 20 -4 11 4 20 2 20 -4 0 -11 -13 -15 -37 -12 -7 1 -13
-4 -13 -11 0 -10 -3 -10 -9 1 -10 16 -4 41 10 41 5 0 9 -5 9 -11z"/>
<path d="M8050 7244 c-10 -11 -9 -14 8 -14 25 0 37 16 18 23 -8 3 -20 -1 -26
-9z"/>
<path d="M7675 5630 c-3 -5 -1 -10 4 -10 6 0 11 5 11 10 0 6 -2 10 -4 10 -3 0
-8 -4 -11 -10z"/>
<path d="M7681 5594 c0 -11 3 -14 6 -6 3 7 2 16 -1 19 -3 4 -6 -2 -5 -13z"/>
<path d="M7715 5575 c-18 -15 -18 -16 -2 -11 10 3 46 6 79 6 74 0 73 5 -2 14
-43 5 -59 3 -75 -9z"/>
<path d="M7865 5570 c3 -5 14 -10 23 -10 15 0 15 2 2 10 -20 13 -33 13 -25 0z"/>
<path d="M8620 5533 c-36 -26 -184 -126 -330 -222 -296 -196 -277 -184 -380
-246 -41 -25 -104 -64 -140 -87 -36 -22 -99 -61 -140 -86 -41 -25 -106 -66
-145 -91 -38 -26 -107 -68 -152 -95 -46 -26 -85 -51 -88 -56 -5 -8 13 -70 25
-83 6 -7 151 81 170 102 6 8 318 217 503 339 78 51 183 119 232 152 50 32 99
62 110 66 32 11 8 -8 -90 -71 -120 -78 -225 -149 -370 -250 -165 -116 -345
-239 -440 -301 -112 -74 -108 -69 -89 -107 9 -18 18 -33 19 -35 3 -4 82 43
213 126 45 28 85 52 88 52 3 0 17 9 32 19 73 51 196 126 204 124 4 -2 8 3 8
11 0 8 12 17 26 20 14 4 35 16 47 26 11 11 33 26 49 32 15 7 28 16 28 20 0 5
7 8 15 8 8 0 15 4 15 9 0 5 8 11 18 14 9 4 46 27 82 52 36 25 72 50 80 55 8 6
76 53 150 105 297 207 309 215 353 217 93 4 284 -16 390 -41 20 -5 37 -5 37 0
0 16 -41 119 -50 124 -10 6 -206 30 -336 41 l-81 6 -89 -59 c-49 -32 -131 -87
-182 -122 -52 -34 -96 -61 -98 -58 -3 2 48 40 113 84 65 44 152 103 193 132
l75 53 80 -6 c74 -6 164 -16 308 -35 62 -8 67 -4 45 44 -6 14 -21 27 -32 30
-31 5 -357 35 -386 35 -14 0 -54 -22 -90 -47z"/>
<path d="M7681 5544 c0 -11 3 -14 6 -6 3 7 2 16 -1 19 -3 4 -6 -2 -5 -13z"/>
<path d="M7786 5529 c-49 -5 -91 -11 -93 -13 -2 -2 -6 -17 -8 -32 -2 -16 -4
-33 -5 -39 -1 -5 -6 1 -10 15 -6 20 -8 21 -9 6 -1 -11 7 -28 17 -39 16 -19 16
-20 -6 -14 -18 4 -21 3 -12 -8 8 -10 7 -23 -5 -50 -17 -42 -20 -79 -5 -70 6 3
10 2 10 -4 0 -5 -4 -12 -9 -15 -14 -9 0 -46 18 -47 13 0 13 -2 1 -6 -17 -7
-40 -29 -40 -38 0 -3 5 -3 10 0 6 3 10 1 10 -4 0 -28 39 -9 225 110 137 88
127 76 104 129 -11 25 -29 64 -40 88 -14 32 -24 42 -41 41 -13 -1 -63 -6 -112
-10z m142 -94 c9 -9 -2 -12 -66 -18 -34 -4 -84 -16 -110 -27 -42 -19 -54 -18
-53 6 0 3 17 17 38 31 34 21 46 23 112 18 41 -3 77 -7 79 -10z m-58 -115 c13
-8 13 -10 -2 -10 -9 0 -20 5 -23 10 -8 13 5 13 25 0z m-60 -24 c0 -6 -103 -67
-107 -62 -6 6 79 65 95 66 6 0 12 -2 12 -4z"/>
<path d="M7465 5435 c-71 -41 -142 -80 -157 -86 -27 -11 -39 -39 -18 -39 6 0
10 -6 9 -12 -7 -53 17 -69 58 -41 15 11 37 23 48 26 15 5 14 3 -5 -11 -14 -9
-38 -29 -55 -44 -24 -21 -27 -28 -14 -33 9 -3 68 26 152 76 l137 82 0 51 c0
82 -5 84 -104 26 -48 -27 -90 -50 -92 -50 -3 0 -24 -13 -47 -28 -60 -40 -77
-48 -42 -19 16 13 82 55 147 91 107 61 143 87 121 85 -4 0 -66 -33 -138 -74z"/>
<path d="M7635 5360 c-3 -5 -1 -10 4 -10 6 0 11 5 11 10 0 6 -2 10 -4 10 -3 0
-8 -4 -11 -10z"/>
<path d="M8623 5291 c-29 -21 -68 -50 -85 -64 -73 -57 -274 -197 -458 -319
-213 -140 -208 -138 -360 -228 -58 -35 -127 -78 -155 -95 -27 -17 -94 -58
-147 -89 -54 -32 -98 -59 -98 -60 0 -5 42 -100 46 -105 10 -11 482 294 782
507 64 45 121 82 126 82 5 0 7 -2 5 -4 -16 -16 -237 -175 -325 -235 -60 -41
-125 -86 -144 -100 -19 -15 -91 -63 -160 -106 -69 -44 -131 -85 -138 -92 -6
-6 -21 -15 -32 -18 -11 -3 -20 -11 -20 -16 0 -5 -6 -9 -12 -9 -7 0 -26 -11
-42 -23 l-29 -23 17 -52 c10 -29 21 -52 24 -52 7 0 70 40 97 62 6 4 48 33 95
64 47 32 113 77 147 101 35 23 67 43 72 43 5 0 11 4 13 8 2 5 48 38 103 75 55
37 129 88 165 112 36 25 76 53 90 63 14 9 27 19 30 23 3 3 47 35 99 70 52 35
130 89 175 121 163 113 159 112 250 109 80 -3 119 -6 226 -17 51 -5 57 -3 88
26 17 17 32 36 32 43 -1 32 -23 40 -186 63 -209 29 -268 46 -139 39 113 -6
314 -34 338 -47 17 -9 18 -7 12 23 -4 18 -13 49 -20 68 l-12 35 -174 23 c-96
12 -190 24 -209 27 -29 5 -43 -1 -87 -33z m1 -135 c-10 -8 -21 -12 -24 -10 -5
6 21 24 34 24 6 0 1 -6 -10 -14z m-34 -20 c0 -3 -4 -8 -10 -11 -5 -3 -10 -1
-10 4 0 6 5 11 10 11 6 0 10 -2 10 -4z m-50 -36 c0 -5 -5 -10 -11 -10 -5 0 -7
5 -4 10 3 6 8 10 11 10 2 0 4 -4 4 -10z m-31 -24 c-22 -20 -143 -96 -146 -92
-3 2 8 12 24 22 15 10 48 33 72 51 24 18 46 31 49 28 3 -3 3 -7 1 -9z m-180
-125 c-13 -11 -28 -20 -32 -21 -4 0 5 11 20 24 15 13 30 23 32 20 2 -2 -7 -12
-20 -23z"/>
<path d="M7476 5234 c-92 -55 -126 -81 -124 -92 2 -10 11 -16 21 -16 19 2 23
-12 5 -18 -6 -2 -9 -12 -5 -21 11 -28 140 -21 200 11 31 16 47 32 47 44 0 12
5 17 13 13 6 -4 4 0 -5 7 -11 9 -14 19 -8 28 4 7 5 23 0 34 -4 12 -5 36 -3 54
3 17 1 32 -4 32 -5 0 -67 -34 -137 -76z m81 -20 c-16 -9 -31 -13 -34 -10 -3 3
5 10 18 15 37 15 47 12 16 -5z m-57 -34 c-24 -15 -36 -11 -14 4 10 8 21 12 24
10 2 -3 -2 -9 -10 -14z m95 -20 c-7 -12 -65 -43 -65 -35 0 5 61 45 68 45 2 0
0 -5 -3 -10z m-170 -20 c-3 -5 -11 -10 -16 -10 -6 0 -7 5 -4 10 3 6 11 10 16
10 6 0 7 -4 4 -10z m81 -45 c-11 -8 -25 -15 -30 -15 -6 0 -2 7 8 15 11 8 25
15 30 15 6 0 2 -7 -8 -15z"/>
<path d="M9329 4987 c-135 -133 -277 -271 -315 -306 -38 -35 -116 -109 -174
-165 -138 -133 -274 -260 -445 -415 -33 -30 -78 -72 -100 -92 l-40 -38 -150
-16 c-82 -8 -188 -20 -235 -25 -47 -5 -141 -14 -210 -20 -121 -10 -412 -40
-480 -50 -3 0 2 -6 11 -13 8 -7 22 -30 31 -52 16 -39 17 -40 64 -40 44 1 320
28 399 40 17 2 73 9 125 14 84 9 329 38 387 46 46 6 70 20 123 70 57 54 66 62
260 236 63 56 135 122 160 145 59 56 106 100 225 209 54 50 218 208 364 352
l265 263 -16 28 c-16 26 -16 31 -2 50 38 55 -19 4 -247 -221z"/>
<path d="M6250 5069 c-25 -12 -148 -64 -275 -116 -126 -52 -253 -106 -282
-119 -29 -13 -159 -70 -290 -126 l-238 -103 -1005 1 c-553 1 -1124 -2 -1270
-6 -146 -5 -329 -9 -407 -10 -79 -1 -143 -5 -143 -10 0 -5 15 -11 33 -13 28
-3 29 -5 11 -11 -43 -15 -33 -114 11 -117 27 -2 58 -1 370 5 149 3 734 8 1300
11 567 3 1044 8 1060 11 26 5 181 69 301 125 23 10 44 19 47 19 3 0 76 32 163
70 86 39 163 70 170 70 7 0 14 5 16 11 2 5 10 11 18 12 16 3 187 73 288 118
35 16 66 29 69 29 3 0 19 6 36 14 18 7 47 19 65 26 17 7 32 16 32 21 0 11 -74
49 -95 49 -26 0 -6 20 39 40 22 10 37 19 31 19 -5 0 -30 -9 -55 -20z"/>
<path d="M9578 5023 c-101 -106 -857 -841 -964 -938 -12 -11 -75 -73 -141
-137 l-119 -116 -179 -21 c-99 -12 -200 -24 -225 -28 -25 -4 -54 -7 -65 -8
-52 -4 -257 -27 -320 -35 -68 -9 -105 -12 -322 -26 -93 -6 -124 -15 -91 -26 6
-2 12 -13 13 -24 5 -55 23 -72 76 -66 3 1 48 1 100 2 52 1 150 5 219 10 150
11 283 19 405 25 200 9 312 16 354 21 41 5 55 17 260 224 218 221 421 429 542
556 74 78 278 273 332 319 19 17 69 63 111 102 80 77 79 76 51 146 -5 12 0 28
14 48 36 48 8 33 -51 -28z"/>
<path d="M8665 5013 c-11 -10 -42 -34 -70 -53 -27 -19 -55 -39 -61 -45 -7 -5
-58 -41 -115 -80 -57 -38 -164 -112 -239 -163 -192 -132 -276 -189 -525 -356
-121 -81 -221 -152 -223 -157 -5 -12 17 -77 28 -84 11 -7 77 36 555 365 12 8
35 24 51 35 16 11 90 63 164 115 165 117 207 146 406 277 54 36 43 35 190 17
50 -6 52 -5 105 42 30 26 56 51 57 56 2 4 -10 8 -27 8 -31 0 -217 26 -256 36
-12 3 -28 -3 -40 -13z"/>
<path d="M1195 4925 c-22 -19 -37 -35 -32 -35 13 0 87 52 87 61 0 16 -14 9
-55 -26z"/>
<path d="M8626 4831 c-36 -25 -86 -61 -113 -79 -26 -18 -127 -89 -223 -158
-96 -68 -182 -127 -190 -131 -8 -4 -19 -11 -25 -15 -40 -35 -452 -318 -461
-318 -3 0 -22 -12 -42 -26 l-37 -26 105 6 c119 7 90 -7 337 161 129 87 174
118 218 154 6 4 15 10 20 12 19 8 130 84 133 92 2 4 10 7 18 7 8 0 14 5 14 10
0 6 6 10 13 10 8 0 25 9 38 21 39 34 210 144 259 167 45 21 158 117 149 127
-3 2 -38 11 -77 18 l-72 14 -64 -46z"/>
<path d="M6550 4851 c0 -6 4 -13 10 -16 6 -3 7 1 4 9 -7 18 -14 21 -14 7z"/>
<path d="M6646 4605 c7 -34 46 -136 51 -131 5 5 -18 72 -46 136 -10 24 -10 24
-5 -5z"/>
<path d="M6550 4617 c0 -2 9 -33 20 -68 11 -35 25 -82 31 -104 20 -70 30 -98
67 -175 41 -86 40 -85 47 -78 3 3 -1 21 -9 39 -37 87 -46 111 -76 204 -34 103
-67 185 -75 185 -3 0 -5 -2 -5 -3z"/>
<path d="M6456 4455 c-3 -8 -1 -25 3 -38 13 -32 24 -61 27 -72 6 -27 57 -161
64 -170 4 -5 29 -52 55 -102 26 -51 49 -93 51 -93 1 0 -11 37 -27 83 -17 45
-50 136 -73 202 -69 193 -86 225 -100 190z"/>
<path d="M6440 4325 c0 -21 49 -195 66 -232 8 -17 14 -38 14 -46 0 -9 3 -17 8
-19 4 -1 19 -28 33 -58 68 -142 102 -210 105 -210 6 0 -23 83 -98 285 -100
269 -128 330 -128 280z"/>
<path d="M10019 4104 c-84 -92 -144 -162 -133 -156 11 6 32 25 47 44 15 18 65
71 110 118 119 124 141 149 135 155 -3 3 -74 -69 -159 -161z"/>
<path d="M5390 4136 c0 -9 5 -16 10 -16 6 0 10 4 10 9 0 6 -4 13 -10 16 -5 3
-10 -1 -10 -9z"/>
<path d="M828 4015 c6 -11 23 -31 39 -45 l28 -25 -30 35 c-47 55 -48 56 -37
35z"/>
<path d="M916 3920 c14 -26 59 -80 66 -80 8 0 -5 16 -51 68 -13 15 -20 20 -15
12z"/>
<path d="M9816 3884 c-52 -61 -42 -64 12 -3 24 27 40 49 35 49 -4 -1 -25 -21
-47 -46z"/>
<path d="M990 3826 c0 -2 8 -10 18 -17 15 -13 16 -12 3 4 -13 16 -21 21 -21
13z"/>
<path d="M9718 3775 c-27 -29 -48 -56 -48 -60 0 -5 10 2 22 16 11 13 35 39 51
56 17 18 29 34 26 36 -2 1 -25 -20 -51 -48z"/>
<path d="M5810 3810 c0 -5 5 -10 11 -10 5 0 7 5 4 10 -3 6 -8 10 -11 10 -2 0
-4 -4 -4 -10z"/>
<path d="M5717 3773 c-10 -9 -9 -23 1 -23 5 0 9 7 9 15 0 17 -1 18 -10 8z"/>
<path d="M1065 3737 c15 -21 30 -35 32 -33 3 3 -9 20 -27 38 l-32 33 27 -38z"/>
<path d="M9625 3676 c-217 -233 -308 -335 -287 -322 12 7 40 36 117 121 15 17
48 53 73 80 25 28 66 71 91 97 24 26 43 49 40 52 -2 2 -17 -11 -34 -28z"/>
<path d="M1140 3653 c1 -5 26 -33 57 -63 l56 -55 -53 63 c-53 62 -60 69 -60
55z"/>
<path d="M5455 3630 c-3 -5 -2 -10 4 -10 5 0 13 5 16 10 3 6 2 10 -4 10 -5 0
-13 -4 -16 -10z"/>
<path d="M1269 3513 c12 -24 31 -39 31 -25 0 5 -10 17 -21 28 -22 19 -22 19
-10 -3z"/>
<path d="M1340 3434 c29 -35 60 -61 60 -51 0 2 -21 23 -47 47 l-47 45 34 -41z"/>
<path d="M7075 3450 c3 -5 8 -10 11 -10 2 0 4 5 4 10 0 6 -5 10 -11 10 -5 0
-7 -4 -4 -10z"/>
<path d="M1410 3367 c0 -5 31 -41 68 -80 81 -85 171 -183 264 -287 l67 -76 93
-22 c51 -12 138 -31 193 -42 55 -10 174 -36 265 -56 91 -20 192 -42 225 -49
75 -16 678 -152 885 -200 258 -60 452 -103 725 -161 143 -30 302 -64 352 -75
51 -11 101 -19 110 -17 10 2 -11 10 -47 17 -152 30 -848 184 -1200 266 -85 20
-207 47 -270 60 -63 14 -194 43 -290 65 -96 22 -204 47 -240 54 -36 8 -148 33
-250 55 -102 23 -261 58 -355 77 -93 19 -177 37 -186 39 -8 3 -51 46 -95 97
-74 85 -131 148 -261 287 -29 31 -53 52 -53 48z"/>
<path d="M9910 2634 c0 -17 17 -18 23 -1 4 9 8 9 15 -2 7 -9 12 -10 16 -2 4 6
4 12 -1 12 -40 7 -53 5 -53 -7z"/>
<path d="M10017 2603 c-12 -12 -7 -22 8 -17 8 4 15 10 15 15 0 11 -14 12 -23
2z"/>
<path d="M10098 2593 c6 -2 18 -2 25 0 6 3 1 5 -13 5 -14 0 -19 -2 -12 -5z"/>
<path d="M10027 2560 c-3 -11 -2 -20 3 -20 4 0 10 9 13 20 3 11 2 20 -3 20 -4
0 -10 -9 -13 -20z"/>
<path d="M10086 2555 c-8 -22 -8 -22 7 -28 9 -3 13 2 12 14 -2 26 -11 33 -19
14z"/>
<path d="M10230 2541 c0 -5 -9 -13 -20 -16 -11 -3 -20 -11 -20 -16 0 -5 10 -4
23 3 12 7 25 11 30 10 11 -3 9 16 -3 23 -5 3 -10 2 -10 -4z"/>
<path d="M10016 2512 c5 -4 12 -11 15 -15 3 -5 9 -2 12 5 3 9 -3 14 -15 15
-11 1 -16 -1 -12 -5z"/>
<path d="M9906 2495 c-8 -8 -28 -15 -45 -15 -17 0 -31 -4 -31 -10 0 -5 7 -7
15 -4 10 4 15 0 15 -10 0 -21 26 -6 53 30 20 27 16 32 -7 9z"/>
<path d="M10166 2483 c-6 -14 -5 -15 5 -6 7 7 10 15 7 18 -3 3 -9 -2 -12 -12z"/>
<path d="M9957 2458 c-3 -10 -1 -18 4 -18 5 0 9 5 9 11 0 7 10 9 25 7 13 -3
22 -2 20 2 -3 4 -16 10 -29 12 -18 4 -26 0 -29 -14z"/>
<path d="M10043 2467 c3 -9 2 -17 -4 -19 -5 -2 0 -9 10 -15 18 -11 20 -10 18
14 -1 15 -9 29 -16 31 -10 3 -12 0 -8 -11z"/>
<path d="M9795 2430 c-10 -16 6 -32 26 -27 10 3 20 -1 22 -9 3 -8 4 -7 3 3 -1
12 -8 17 -24 15 -16 -2 -20 1 -16 12 7 18 -1 22 -11 6z"/>
<path d="M9890 2426 c0 -9 5 -16 10 -16 6 0 10 4 10 9 0 6 -4 13 -10 16 -5 3
-10 -1 -10 -9z"/>
<path d="M9680 2400 c0 -5 4 -10 9 -10 6 0 13 5 16 10 3 6 -1 10 -9 10 -9 0
-16 -4 -16 -10z"/>
<path d="M9710 2380 c0 -5 5 -10 10 -10 6 0 10 5 10 10 0 6 -4 10 -10 10 -5 0
-10 -4 -10 -10z"/>
<path d="M9881 2364 c0 -11 3 -14 6 -6 3 7 2 16 -1 19 -3 4 -6 -2 -5 -13z"/>
<path d="M9753 2348 c1 -15 6 -23 11 -18 4 4 4 16 -2 26 -9 16 -10 14 -9 -8z"/>
<path d="M9630 2279 c0 -5 5 -7 10 -4 6 3 10 8 10 11 0 2 -4 4 -10 4 -5 0 -10
-5 -10 -11z"/>
<path d="M9547 2266 c4 -5 -1 -7 -10 -3 -11 4 -14 2 -10 -9 7 -19 15 -18 35 5
16 18 15 20 -2 18 -10 -1 -16 -5 -13 -11z"/>
<path d="M8188 2353 c7 -3 16 -2 19 1 4 3 -2 6 -13 5 -11 0 -14 -3 -6 -6z"/>
<path d="M8140 2328 c0 -16 5 -28 10 -28 13 0 13 20 0 40 -8 12 -10 9 -10 -12z"/>
<path d="M8070 2330 c0 -5 5 -10 11 -10 5 0 7 5 4 10 -3 6 -8 10 -11 10 -2 0
-4 -4 -4 -10z"/>
<path d="M7996 2304 c-5 -14 -4 -15 9 -4 17 14 19 20 6 20 -5 0 -12 -7 -15
-16z"/>
<path d="M8030 2300 c-8 -5 -11 -12 -7 -16 4 -4 15 0 24 9 18 18 8 23 -17 7z"/>
<path d="M8073 2294 c3 -3 2 -17 -4 -31 -6 -16 -6 -22 1 -18 6 3 10 13 10 21
0 8 7 14 16 14 8 0 12 5 9 10 -3 6 -13 10 -22 10 -9 0 -14 -3 -10 -6z"/>
<path d="M8120 2270 c0 -5 -6 -10 -13 -10 -8 0 -19 -12 -26 -27 -10 -24 -10
-26 2 -10 8 9 19 17 26 17 6 0 11 5 11 10 0 6 12 10 26 10 14 0 23 4 19 10 -3
6 -15 10 -26 10 -10 0 -19 -4 -19 -10z"/>
<path d="M8005 2240 c3 -5 11 -10 16 -10 6 0 7 5 4 10 -3 6 -11 10 -16 10 -6
0 -7 -4 -4 -10z"/>
<path d="M8080 2190 c0 -5 5 -10 11 -10 5 0 7 5 4 10 -3 6 -8 10 -11 10 -2 0
-4 -4 -4 -10z"/>
<path d="M7934 2166 c-10 -8 -17 -17 -14 -19 3 -3 16 3 29 14 27 22 15 26 -15
5z"/>
<path d="M7850 2131 c0 -5 5 -13 10 -16 6 -3 10 -2 10 4 0 5 -4 13 -10 16 -5
3 -10 2 -10 -4z"/>
<path d="M7895 2110 c-3 -5 1 -10 9 -10 9 0 16 5 16 10 0 6 -4 10 -9 10 -6 0
-13 -4 -16 -10z"/>
<path d="M6358 2073 c-31 -13 -38 -21 -38 -43 0 -20 -6 -29 -21 -33 l-21 -6
21 -30 c12 -17 27 -44 32 -61 6 -16 15 -30 20 -30 5 0 9 -6 9 -13 0 -8 11 -20
25 -27 14 -7 25 -17 25 -22 0 -4 7 -8 15 -8 8 0 15 -4 15 -9 0 -4 11 -25 25
-45 18 -26 20 -36 10 -36 -7 0 -17 5 -20 10 -3 6 -11 10 -16 10 -6 0 -3 -10 5
-22 12 -17 16 -48 16 -120 0 -86 2 -100 23 -123 18 -21 34 -28 82 -32 75 -7
167 11 190 37 16 18 17 35 11 172 -7 150 -17 199 -29 140 -14 -71 -144 -107
-220 -62 -48 28 -63 64 -43 95 15 23 73 55 100 55 22 0 20 16 -4 40 -11 11
-20 28 -20 38 0 21 -123 143 -142 141 -7 -1 -30 -8 -50 -16z"/>
<path d="M7827 2063 c-2 -10 -8 -26 -12 -36 -6 -13 -3 -16 9 -11 9 3 16 15 16
25 0 10 5 19 11 19 5 0 7 5 4 10 -9 15 -22 12 -28 -7z"/>
<path d="M7800 2061 c0 -8 -6 -11 -16 -7 -14 6 -15 4 -4 -9 12 -15 14 -15 23
0 5 9 6 19 3 22 -3 4 -6 1 -6 -6z"/>
<path d="M7690 2000 c-9 -6 -10 -10 -3 -10 6 0 15 5 18 10 8 12 4 12 -15 0z"/>
<path d="M6100 1988 c-46 -13 -60 -26 -60 -54 0 -14 -8 -25 -20 -29 -38 -12
-26 -33 72 -132 29 -29 60 -53 69 -53 22 0 131 38 143 50 6 6 4 16 -6 27 -9
10 -20 31 -24 47 -6 24 -124 158 -136 155 -1 0 -19 -5 -38 -11z"/>
<path d="M7750 1976 c0 -8 -6 -17 -12 -19 -7 -3 -3 -6 10 -6 22 -1 31 22 12
34 -5 3 -10 0 -10 -9z"/>
<path d="M7790 1960 c0 -5 5 -10 10 -10 6 0 10 5 10 10 0 6 -4 10 -10 10 -5 0
-10 -4 -10 -10z"/>
<path d="M5805 1874 c-21 -8 -42 -19 -46 -26 -4 -6 -14 -8 -22 -5 -9 3 -21 -1
-28 -9 -15 -18 -3 -32 13 -16 13 13 38 16 38 4 0 -4 -10 -12 -22 -17 -12 -6
-23 -14 -24 -20 -2 -5 31 -47 74 -93 l77 -83 78 27 c77 28 90 41 62 64 -8 7
-15 20 -15 30 0 17 -125 161 -138 159 -4 0 -25 -7 -47 -15z"/>
<path d="M5508 1782 c-44 -14 -48 -18 -48 -48 0 -24 -5 -34 -21 -39 -11 -4
-19 -10 -17 -15 5 -15 133 -158 145 -164 7 -3 31 1 53 9 22 8 44 15 48 16 4 0
18 9 32 19 24 17 24 19 7 37 -9 11 -17 29 -17 41 0 12 -15 39 -34 59 -18 21
-46 53 -62 71 -16 17 -31 32 -34 31 -3 0 -26 -8 -52 -17z"/>
<path d="M7240 1787 c-40 -21 -48 -44 -23 -68 39 -39 143 -20 143 26 0 35 -79
62 -120 42z"/>
<path d="M7630 1771 c0 -5 15 -13 33 -16 17 -4 37 -11 42 -15 6 -4 26 -1 45 6
l35 14 -32 -5 c-18 -2 -35 0 -39 6 -3 6 -17 8 -29 5 -13 -3 -27 -2 -30 4 -8
13 -25 13 -25 1z"/>
<path d="M7856 1753 c-3 -3 -6 -13 -5 -22 0 -12 3 -11 9 4 7 18 8 19 15 3 4
-10 14 -18 22 -18 8 0 11 4 8 10 -9 15 -41 30 -49 23z"/>
<path d="M7801 1740 c0 -8 4 -22 9 -30 12 -18 12 -2 0 25 -6 13 -9 15 -9 5z"/>
<path d="M7770 1714 c0 -8 5 -12 10 -9 6 4 8 11 5 16 -9 14 -15 11 -15 -7z"/>
<path d="M6395 1710 c-3 -6 1 -7 9 -4 18 7 21 14 7 14 -6 0 -13 -4 -16 -10z"/>
<path d="M7706 1704 c-6 -15 -4 -15 11 -3 10 7 20 15 22 16 2 2 -3 3 -11 3 -9
0 -19 -7 -22 -16z"/>
<path d="M7972 1689 c-17 -27 -14 -38 3 -15 8 11 15 14 15 7 0 -7 5 -9 10 -6
14 9 12 22 -3 28 -7 3 -19 -3 -25 -14z"/>
<path d="M7732 1688 c-7 -7 -12 -17 -12 -22 0 -6 5 -3 11 7 10 18 11 18 25 0
7 -10 14 -13 14 -7 0 20 -25 35 -38 22z"/>
<path d="M7785 1690 c-3 -5 -1 -10 4 -10 6 0 11 5 11 10 0 6 -2 10 -4 10 -3 0
-8 -4 -11 -10z"/>
<path d="M5216 1675 c-44 -16 -56 -29 -48 -57 3 -14 -1 -21 -17 -25 -32 -8
-26 -25 37 -93 31 -34 61 -69 65 -76 11 -19 27 -18 100 7 79 26 86 33 60 61
-12 13 -23 33 -25 45 -3 24 -107 152 -123 152 -5 0 -28 -6 -49 -14z"/>
<path d="M7810 1609 c0 -5 5 -7 10 -4 6 3 10 8 10 11 0 2 -4 4 -10 4 -5 0 -10
-5 -10 -11z"/>
<path d="M7570 1591 c0 -6 -8 -11 -18 -11 -10 0 -22 -3 -26 -7 -4 -5 -13 -8
-18 -8 -6 0 -13 -6 -16 -14 -3 -8 1 -11 9 -8 8 3 33 11 57 18 24 6 41 16 39
22 -5 15 -27 21 -27 8z"/>
<path d="M7443 1543 c-21 -8 -15 -22 7 -16 11 3 20 9 20 14 0 10 -8 10 -27 2z"/>
<path d="M6892 1520 c-13 -29 -47 -70 -58 -70 -4 0 -15 -7 -25 -16 -29 -26
-119 -45 -217 -45 -109 0 -176 18 -223 62 -35 32 -50 32 -28 -1 39 -59 266
-112 352 -83 21 7 42 11 47 8 4 -3 10 1 13 9 3 8 23 20 44 26 21 7 50 21 64
31 29 20 54 70 46 91 -3 8 -9 4 -15 -12z"/>
<path d="M5651 1506 c-12 -15 -6 -62 10 -72 14 -8 11 -24 -3 -19 -17 7 -8
-221 9 -251 13 -23 52 -34 117 -34 114 1 176 45 176 125 0 75 -22 249 -33 260
-7 7 -8 4 -4 -7 7 -20 -8 -25 -16 -5 -3 6 -3 -1 -1 -18 4 -26 0 -33 -31 -54
-71 -48 -202 -19 -198 43 1 17 -2 24 -9 20 -7 -5 -9 -1 -5 9 8 21 3 22 -12 3z"/>
<path d="M5866 1504 c-5 -13 -9 -14 -21 -4 -9 7 -18 10 -22 6 -8 -8 -3 -12 24
-20 16 -5 25 -2 33 14 6 11 7 20 1 20 -5 0 -12 -7 -15 -16z"/>
<path d="M5735 1500 c3 -5 14 -10 23 -10 15 0 15 2 2 10 -20 13 -33 13 -25 0z"/>
<path d="M5536 1373 c-9 -9 -7 -33 3 -33 12 0 22 28 12 34 -5 3 -11 3 -15 -1z"/>
<path d="M6083 1235 c-6 -7 -9 -15 -6 -19 3 -3 -2 -8 -11 -12 -9 -3 -16 -12
-16 -20 0 -22 -71 -63 -144 -83 -67 -19 -180 -22 -251 -7 -23 5 -20 1 15 -15
58 -27 159 -31 217 -7 22 9 44 14 47 11 2 -3 19 5 35 17 17 12 31 18 31 15 0
-16 79 58 90 84 14 35 10 55 -7 36z"/>
<path d="M5520 1173 c1 -16 26 -40 57 -56 49 -26 50 -21 2 23 -43 38 -59 47
-59 33z"/>
<path d="M5738 1103 c7 -3 16 -2 19 1 4 3 -2 6 -13 5 -11 0 -14 -3 -6 -6z"/>
<path d="M6275 2360 c-3 -5 -1 -10 4 -10 6 0 11 5 11 10 0 6 -2 10 -4 10 -3 0
-8 -4 -11 -10z"/>
<path d="M6320 2310 c-8 -5 -12 -11 -9 -14 2 -3 11 -1 19 4 8 5 12 11 9 14 -2
3 -11 1 -19 -4z"/>
<path d="M6260 2270 c0 -6 7 -10 15 -10 8 0 15 2 15 4 0 2 -7 6 -15 10 -8 3
-15 1 -15 -4z"/>
<path d="M5022 2400 c-7 -12 -8 -21 -2 -25 6 -3 10 2 10 12 0 15 2 16 10 3 8
-13 10 -13 10 2 0 25 -14 29 -28 8z"/>
<path d="M5010 2300 c0 -5 5 -10 11 -10 5 0 7 5 4 10 -3 6 -8 10 -11 10 -2 0
-4 -4 -4 -10z"/>
<path d="M5040 2300 c0 -5 5 -10 11 -10 5 0 7 5 4 10 -3 6 -8 10 -11 10 -2 0
-4 -4 -4 -10z"/>
<path d="M5070 2246 c0 -9 5 -16 10 -16 6 0 10 4 10 9 0 6 -4 13 -10 16 -5 3
-10 -1 -10 -9z"/>
<path d="M5125 2101 c-6 -11 13 -26 22 -17 4 3 1 6 -6 6 -7 0 -9 5 -6 10 3 6
4 10 1 10 -3 0 -7 -4 -11 -9z"/>
<path d="M5090 2089 c0 -5 5 -7 10 -4 6 3 10 8 10 11 0 2 -4 4 -10 4 -5 0 -10
-5 -10 -11z"/>
<path d="M5145 2060 c-3 -5 -1 -10 4 -10 6 0 11 5 11 10 0 6 -2 10 -4 10 -3 0
-8 -4 -11 -10z"/>
<path d="M5130 2015 c0 -9 5 -15 11 -13 6 2 11 8 11 13 0 5 -5 11 -11 13 -6 2
-11 -4 -11 -13z"/>
<path d="M5110 1979 c0 -5 5 -7 10 -4 6 3 10 8 10 11 0 2 -4 4 -10 4 -5 0 -10
-5 -10 -11z"/>
<path d="M8510 1849 c0 -5 5 -7 10 -4 6 3 10 8 10 11 0 2 -4 4 -10 4 -5 0 -10
-5 -10 -11z"/>
</g>
</svg>
